<svg xmlns="http://www.w3.org/2000/svg" viewBox="0 0 575.94 120.5"><defs><style>.cls-1{fill:#f60;}.cls-2{fill:#06c;}.cls-3{fill:#eeeeed;}</style></defs><title>logo_SVG</title><g id="Layer_2" data-name="Layer 2"><g id="Layer_1-2" data-name="Layer 1"><path class="cls-1" d="M431.35,75.13A14.75,14.75,0,0,1,435.79,86a14.59,14.59,0,0,1-4.44,10.71A15.32,15.32,0,0,1,409.68,75a14.71,14.71,0,0,1,10.84-4.46A15.22,15.22,0,0,1,431.35,75.13Z"/><polygon class="cls-1" points="116.09 30.58 105.52 22.88 123.93 0.42 138.42 10.87 116.09 30.58"/><path class="cls-2" d="M56.66,22.19l-8,15.14a28.92,28.92,0,0,0-3.46-1.44,29.7,29.7,0,0,0-3.85-1q-1.44-.26-2.81-.46a18.91,18.91,0,0,0-2.68-.2q-.66,0-1.37.07a4.92,4.92,0,0,0-1.37.33A9.1,9.1,0,0,0,29.9,36a3.19,3.19,0,0,0-1.44,2.81,3.61,3.61,0,0,0,1.89,3.33,14.52,14.52,0,0,0,4.24,1.63,20,20,0,0,0,2.48.59l2.09.33a32.14,32.14,0,0,1,13.9,6.14q5.55,4.44,5.55,13.71,0,12.8-9.4,18.6a41.51,41.51,0,0,1-20.76,6.2H27a50.85,50.85,0,0,1-14-2A54.55,54.55,0,0,1,0,81.73L8.62,65a28.61,28.61,0,0,0,5.09,3.07,57,57,0,0,0,5.88,2.42,39.27,39.27,0,0,0,4,1,19.27,19.27,0,0,0,3.79.39,9.83,9.83,0,0,0,1.11-.07c.39,0,.8-.11,1.24-.2a8.61,8.61,0,0,0,3.52-1.57,3.85,3.85,0,0,0,1.57-3.26,4.23,4.23,0,0,0-2.74-4.11,31.37,31.37,0,0,0-6.53-2q-1.44-.26-2.81-.59T20,59.4a27.79,27.79,0,0,1-10.25-5q-4.64-3.59-4.63-12.6,0-12.14,9-17.89A36.82,36.82,0,0,1,33.81,18h.78a64.89,64.89,0,0,1,11.29,1,45.42,45.42,0,0,1,10.77,3.33Z"/><path class="cls-2" d="M144.65,87.08H120.89V79.64h-.26a17.65,17.65,0,0,1-7.83,7,27.74,27.74,0,0,1-10.31,2.55,4.35,4.35,0,0,1-1,.13h-1Q85.51,89.3,76,78.66a36.4,36.4,0,0,1-9.46-25,36.7,36.7,0,0,1,9.33-25Q85.25,18,100.13,18h1.31a6.73,6.73,0,0,1,1.31.13,30.45,30.45,0,0,1,10,2.55,22,22,0,0,1,8.16,6.07V20.1h23.76ZM95.17,43.15a15.39,15.39,0,0,0-4,10.64,15,15,0,0,0,4,10.71q4,4.31,11.23,4.31t11.29-4.33a15.28,15.28,0,0,0,4-10.75,15.64,15.64,0,0,0-4-10.68q-4-4.52-11.29-4.52T95.17,43.15Z"/><path class="cls-2" d="M184.21,28.72h.26a23.55,23.55,0,0,1,9.33-8.36A28.87,28.87,0,0,1,205.88,18q13.58,0,19.39,7.7t5.81,20.11V87.08H207.32V50.52q0-1.3-.13-2.61a16.4,16.4,0,0,0-2.35-7.51q-2.09-3.46-8.22-3.46-7.18,0-9.79,4.64a21.83,21.83,0,0,0-2.61,10.9v34.6H160.45v-67h23.76Z"/><path class="cls-2" d="M320.24,80.55q0,21.41-10.12,30.68t-28.66,9.27q-2.48,0-5.22-.26a40.24,40.24,0,0,1-5.48-.91,47.42,47.42,0,0,1-18-8.09,22.44,22.44,0,0,1-9.47-16.32H270a7.28,7.28,0,0,0,1.7,3.07,9.77,9.77,0,0,0,2.74,2,9.93,9.93,0,0,0,2,.85,12.22,12.22,0,0,0,2.09.46,13.73,13.73,0,0,0,1.37.2q.72.06,1.37.07,9.66,0,12.47-5.55a29.7,29.7,0,0,0,2.81-13.51V79.25a30.94,30.94,0,0,1-9.6,6.92,28.72,28.72,0,0,1-11.68,2.22q-14.62,0-23.83-9.79t-9.2-24.28a37.39,37.39,0,0,1,9.47-25.52Q261.1,18,276.51,18a28.34,28.34,0,0,1,11,2.15,20.05,20.05,0,0,1,8.68,7.11l.26-.13v-7h23.76ZM270.76,42.63a15.4,15.4,0,0,0-4,10.64,15,15,0,0,0,4,10.71q4,4.31,11.23,4.31T293.29,64a15.28,15.28,0,0,0,4-10.75,15.65,15.65,0,0,0-4-10.69Q289.3,38,282,38T270.76,42.63Z"/><path class="cls-2" d="M361.11,87.08H337.35V39.69h-7.7V20.1h7.7V0h23.76V20.1h13.45V39.69H361.11Z"/><path class="cls-2" d="M455.36,87.08H431.6V79.64h-.26a17.65,17.65,0,0,1-7.83,7,27.74,27.74,0,0,1-10.31,2.55,4.35,4.35,0,0,1-1,.13h-1q-14.88,0-24.35-10.64a36.4,36.4,0,0,1-9.47-25,36.7,36.7,0,0,1,9.33-25Q396,18,410.85,18h1.31a6.73,6.73,0,0,1,1.31.13,30.45,30.45,0,0,1,10,2.55,22,22,0,0,1,8.16,6.07V20.1h23.76ZM405.88,43.15a15.39,15.39,0,0,0-4,10.64,15,15,0,0,0,4,10.71q4,4.31,11.23,4.31t11.29-4.33a15.28,15.28,0,0,0,4-10.75,15.65,15.65,0,0,0-4-10.68q-4-4.52-11.29-4.52T405.88,43.15Z"/><path class="cls-2" d="M506.54,17.89a45.53,45.53,0,0,1,28.26,9.46q12.07,9.34,12.08,26.44T534.81,80a47.77,47.77,0,0,1-56.46.07q-12.14-9.2-12.14-26.31t12.08-26.44A44.89,44.89,0,0,1,506.54,18ZM495.31,43.15a15.39,15.39,0,0,0-4,10.64,15,15,0,0,0,4,10.71q4,4.31,11.23,4.31t11.29-4.33a15.28,15.28,0,0,0,4-10.75,15.64,15.64,0,0,0-4-10.68q-4-4.52-11.29-4.52T495.31,43.15Z"/><rect class="cls-3" x="424.17" y="30.48" width="151.77" height="46.51"/><path class="cls-1" d="M453,37.33l-3.82,7.44a11.41,11.41,0,0,0-3-1.74,9,9,0,0,0-3.4-.66l-.54,0a2.58,2.58,0,0,0-.59.12,5,5,0,0,0-2.06,1,2.37,2.37,0,0,0-.93,2,2.3,2.3,0,0,0,.88,1.88,8.17,8.17,0,0,0,1.91,1.15l.76.27L443,49l2.45.69a17.91,17.91,0,0,1,6.49,3.4q2.62,2.23,2.62,6.73v.78a17.33,17.33,0,0,1-.93,5,9.53,9.53,0,0,1-2.89,4.19,12.28,12.28,0,0,1-4.21,2.4,20.27,20.27,0,0,1-4.8,1l-.76,0-.71,0a21.52,21.52,0,0,1-6.81-1.1A24.14,24.14,0,0,1,427.27,69l4.11-7.78A19.79,19.79,0,0,0,435.32,64a9.64,9.64,0,0,0,4.58,1.13h.39a5.7,5.7,0,0,0,2.94-1,3.08,3.08,0,0,0,1.32-2.72,2.63,2.63,0,0,0-1.1-2.2A9.23,9.23,0,0,0,441,57.84l-1.17-.37-1.08-.32a.93.93,0,0,0-.22-.07.86.86,0,0,1-.22-.07,21.56,21.56,0,0,1-7-3.13q-2.59-1.91-2.59-7.15a11.77,11.77,0,0,1,3.6-9,12.81,12.81,0,0,1,9.13-3.38,22.51,22.51,0,0,1,2.3.12,17,17,0,0,1,2.35.42,28.28,28.28,0,0,1,3.65,1A20.67,20.67,0,0,1,453,37.38Z"/><path class="cls-1" d="M482.54,49.52V35.28h9.6V72.19h-9.6V57.06H468.69V72.19h-9.6V35.28h9.6V49.52Z"/><path class="cls-1" d="M517,34.05a21.46,21.46,0,0,1,14.2,5.36,17.17,17.17,0,0,1,6.22,13.68q0,9-5.75,14.64a21.74,21.74,0,0,1-29.3,0q-5.78-5.68-5.78-14.64a17.17,17.17,0,0,1,6.22-13.68A21.24,21.24,0,0,1,517,34.1Zm-7.37,12.31a9.19,9.19,0,0,0-3.06,6.78A10.82,10.82,0,0,0,509.59,61a10.22,10.22,0,0,0,14.74,0,10.87,10.87,0,0,0,3.06-7.9,9.23,9.23,0,0,0-3.06-6.8,10.2,10.2,0,0,0-7.37-3A10.4,10.4,0,0,0,509.59,46.36Z"/><path class="cls-1" d="M541.83,35.28h14.69a15.58,15.58,0,0,1,9.69,2.94q3.72,2.89,3.72,9.25T566.53,57q-3.4,3-9.67,3h-5.43V72.19h-9.6Zm9.6,16.94H553a17.39,17.39,0,0,0,4.75-.51q2.15-.56,2.15-3.94t-2.06-4.13A16.92,16.92,0,0,0,553,43h-1.62Z"/></g></g></svg>